<svg xmlns="http://www.w3.org/2000/svg" role="img" viewBox="0 0 24 24"><path d="M5.46828 0C2.48416 0 .08174 2.4023.08174 5.38643v13.22715C.08174 21.5977 2.48416 24 5.46828 24h13.06343c2.98413 0 5.38655-2.4023 5.38655-5.38642V5.38643C23.91826 2.4023 21.51584 0 18.53171 0Zm-.05894.76065H18.5856c2.57983 0 4.65667 2.07683 4.65667 4.65667v13.11063c0 2.57983-2.07684 4.65679-4.65667 4.65679H5.40934c-2.57983 0-4.65679-2.07696-4.65679-4.6568V5.41733c0-2.57984 2.07696-4.65667 4.6568-4.65667zm-.0091 1.69946c-1.61052 0-2.90716 1.29664-2.90716 2.90716V18.5917c0 1.61052 1.29664 2.90716 2.90716 2.90716h13.1891c1.61052 0 2.90716-1.29664 2.90716-2.90716V5.36727c0-1.61052-1.29664-2.90716-2.90716-2.90716zm-.93103 1.80104 2.88417 1.589-.0084.6246-2.88936 1.59556-.0035-.7976s1.44057-.77948 2.10302-1.0709c.03736-.019.02715-.0415.0088-.0772L4.46129 5.07026zM8.30678 8.5863h3.39865v.72605H8.30674Z"/></svg>