<svg role="img" viewBox="0 0 24 24" xmlns="http://www.w3.org/2000/svg"><path d="M18.2192 22.2786c.6617.4852 1.4116.75 2.2057.75q.8602 0 1.588-.3972c1.2794-.6175 2.0294-1.8527 1.9853-3.2203V4.633c0-1.4116-.7941-2.647-2.0293-3.2644q-.6617-.331-1.4558-.397c-.794 0-1.588.2205-2.2498.7499l-6.176 4.676-.0441-.0441-.0442.044-6.176-4.676c-.6616-.5293-1.4557-.75-2.2498-.75q-.794.0663-1.4557.397c-.6617.309-1.191.75-1.544 1.3236v.044c-.0441 0-.0441.0442-.0882.0883C.1765 3.3536 0 3.9712 0 4.633v14.7342c0 1.4116.794 2.6468 2.0293 3.2644.5293.2647 1.1028.397 1.588.397.794 0 1.544-.2646 2.2058-.75l6.176-4.7201zm3.7497-2.8676v.0442c0 .5735-.3088 1.1028-.8382 1.3675s-1.147.1765-1.6322-.1764l-5.7348-4.3673.044-.0442h-.044l.441-.3529 3.3528-2.5586 4.4114 3.3968zm0-9.4845v4.1468L19.2779 12h.0443-.0442zm0 0c0-.044 0 0 0 0m-2.4705-6.5289c.4853-.3529 1.103-.397 1.6323-.1323.1323.044.2646.1323.3529.2206.3088.2647.4852.6616.4852 1.147v2.6468l-4.4114 3.3969-3.7938-2.9558zm-17.425 3.838V4.6327c0-.6176.3529-1.147.8822-1.4116.2206-.1324.4853-.1765.7058-.1765.3088 0 .6176.1324.8823.3088l5.7349 4.3232-3.794 2.9998zm0 6.7935V9.8824l2.691 2.0734h-.0442.044zm0 0c0 .0441 0 0 0 0m3.882 5.5143-1.4117 1.0589c-.4852.397-1.1028.441-1.6322.1764s-.8382-.75-.8382-1.3676V16.72l.0442-.044.9704-.75a4245 4245 0 0 0 3.3968-2.6468h.0442l3.7938 2.9557s-2.7792 2.1174-4.3673 3.3084m6.0437-4.632h-.0442l-.3088-.2647-3.485-2.691L11.999 9l1.8528 1.4558 1.941 1.4999-3.5732 2.7792-.1324.0882z"/></svg>