<svg role="img" viewBox="0 0 24 24" xmlns="http://www.w3.org/2000/svg"><title>Ollama</title><path d="M16.9913.001a1.6 1.6 0 0 0-.1595.0023c-.996.0586-1.799 1.2045-2.1161 3.0104-.0517.2912-.0965.6323-.0965.7254 0 .0362-.0069.0655-.0154.0655s-.0759-.0345-.1483-.0775c-.7685-.455-1.6232-.698-2.4555-.698s-1.687.243-2.4555.698c-.0723.043-.1396.0775-.1482.0775s-.0155-.0293-.0155-.0655c0-.0965-.0465-.448-.0964-.7254C8.9966 1.3922 8.3366.3187 7.4595.048 7.339.0119 6.996-.0122 6.8736.0067c-.224.0362-.4928.1534-.6824.2982-.5738.436-1.0183 1.3612-1.2062 2.514-.0706.436-.1189 1.0408-.1189 1.5026 0 .5446.0638 1.2407.1551 1.7214.0207.1069.031.2017.0224.2086a8 8 0 0 1-.1861.1516c-.324.2585-.6944.6565-.9494 1.0201-.4894.6945-.8065 1.4837-.9392 2.3384-.0517.3377-.0654 1.02-.024 1.3578.0913.7789.3256 1.437.7271 2.0402l.131.1947-.038.0638c-.2688.4515-.498 1.1045-.6048 1.7318-.0844.4962-.0948.629-.0948 1.294 0 .6704.0087.803.088 1.2666.0947.5548.2877 1.1424.503 1.5336.0707.1275.243.3929.2637.4067.0069.0034-.0138.0671-.0465.1412-.2481.5428-.46 1.2648-.548 1.8731-.062.417-.0706.5514-.0706.9908 0 .56.031.8324.1482 1.2787L3.4204 24H4.897l-.0482-.0913c-.298-.5514-.3257-1.575-.069-2.5968.1173-.4722.25-.8185.498-1.2959l.1483-.2894v-.1775c0-.1654-.0035-.1844-.057-.293-.0413-.0827-.0964-.1533-.1946-.2498-.1671-.162-.2878-.3325-.3843-.5428-.4239-.9202-.5066-2.2866-.2085-3.4515.1241-.486.3292-.9184.5446-1.1545.1464-.162.2223-.3429.2223-.5307 0-.1947-.069-.355-.2241-.5221-.4446-.4756-.7186-1.0547-.8168-1.7284-.1396-.9598.1138-2.0058.6893-2.8346.5635-.8133 1.3544-1.3354 2.2384-1.475.1982-.0327.5686-.0276.7754.0103.2258.0397.367.0276.5118-.0414.1792-.0844.2688-.1895.374-.4307.093-.2154.1653-.3326.36-.5756.2344-.2912.4601-.4893.822-.7288.4136-.2706.884-.467 1.3527-.5618.1706-.0345.2498-.0396.5686-.0396s.398.0051.5686.0396c.6876.1396 1.37.4945 1.9145.9977.1172.1085.398.4567.4877.6014.0344.0569.0947.1775.1326.267.1051.2413.1948.3464.374.4308.1395.0672.286.0811.5031.0449.343-.0586.6066-.0535.9426.0155 1.1442.2309 2.1402 1.1734 2.5813 2.4365.3843 1.108.2757 2.2677-.2964 3.1534-.0965.15-.193.2706-.3325.4188-.3016.3222-.3017.722-.0018 1.0528.4928.5394.8013 1.8662.7082 3.0362-.062.772-.2602 1.463-.5325 1.8541-.0482.069-.1482.1861-.224.2585-.0982.0965-.1533.1671-.1947.2498-.0534.1086-.0569.1276-.0569.293v.1775l.1482.2894c.2482.4774.3809.8237.498 1.2959.2534 1.008.231 2.0109-.0586 2.5813-.024.0482-.0448.093-.0448.0982s.3292.0086.7324.0086h.7306l.019-.0741c.0103-.0396.0275-.1.0361-.1344.019-.0758.057-.2998.088-.5152.0292-.2172.0292-1.0167 0-1.258-.1103-.8753-.2948-1.5697-.5963-2.2263-.0327-.074-.0534-.1378-.0466-.1412.0086-.0052.057-.0741.1086-.1517.3757-.5686.6066-1.2838.7238-2.228.031-.2603.031-1.3786 0-1.6285-.0828-.6444-.1827-1.082-.3481-1.525-.069-.1843-.2516-.5737-.3292-.6995l-.0378-.0638.1309-.1947c.4015-.6031.6359-1.2614.7272-2.0402.0413-.3378.0276-1.0201-.0241-1.3579-.1344-.8564-.4498-1.6421-.9391-2.3383-.255-.3636-.6255-.7616-.9494-1.0201a8 8 0 0 1-.1862-.1516c-.0086-.007.0017-.1017.0224-.2086.2086-1.0873.2016-2.4434-.0172-3.5031-.1895-.9237-.5342-1.6577-.9787-2.0816-.3106-.2955-.6266-.4433-.9916-.4571m-9.907 1.3595c.021.002.0435.0179.0823.0489.248.1964.5238.7582.6823 1.3871.0293.1138.0603.2447.069.293.0068.0465.0258.1516.0413.2326.0672.3653.0982.76.1017 1.2407l.0017.4738-.1189.1758-.1189.1775h-.2774a3.7 3.7 0 0 0-.9547.124c-.1102.0276-.217.0552-.2378.0604-.0327.0069-.0379-.0035-.0568-.1448-.1017-.7668-.0965-1.6163.0155-2.3228.124-.7875.4136-1.5009.6962-1.7111.0336-.025.0534-.037.0745-.035m9.8317.0002c.0213-.0017.0416.0108.076.0366.1706.1258.3584.46.498.8874.2809.8547.3602 2.0282.212 3.1448-.019.1413-.0242.1517-.0569.1448-.0207-.0052-.1275-.0328-.2378-.0603a3.7 3.7 0 0 0-.9546-.1241h-.2775l-.1189-.1775-.1189-.1758.0018-.4738c.0035-.6686.0655-1.1907.2137-1.7714.1568-.6238.4342-1.1856.6806-1.382.0388-.031.0612-.047.0825-.0487m-5.0224 8.705c-.0706-.0005-.128.0008-.1607.0042-.374.0362-.4756.05-.6548.0862-.2912.0603-.6806.1947-.9512.3274-.9408.46-1.5887 1.2269-1.7869 2.1143-.0396.1758-.0448.2344-.0448.5308 0 .2929.0052.3566.043.5238.2637 1.1597 1.332 2.016 2.714 2.1729.2999.0327 1.5957.0327 1.8955 0 1.1098-.1258 2.0644-.7272 2.4935-1.5715.1137-.2258.1688-.3722.2205-.6014.038-.1672.0431-.231.0431-.5238 0-.2964-.0052-.355-.0448-.5308-.2878-1.2889-1.5388-2.3038-3.0724-2.4968-.15-.0181-.482-.0343-.694-.0354zm-4.5052.1678c-.0866.0011-.171.0114-.2305.0312-.305.0965-.5324.3205-.6496.6393-.0568.1517-.0844.3912-.0603.5204.0569.3085.3102.5893.598.6669.3618.0947.6323.0327.8718-.205.1396-.1362.2155-.2551.2913-.4481.0551-.1362.0586-.1602.0586-.3532l.0017-.2068-.0724-.1482c-.1155-.2344-.324-.4084-.5652-.4722-.068-.0172-.1568-.0254-.2434-.0243m9.2094.0002c-.0861 0-.1736.0086-.2365.0259-.236.0637-.4463.2395-.5583.4704l-.0723.1482.0017.2068c0 .193.0035.217.0585.3532.0759.193.1517.3119.2913.448.2395.2378.51.2998.8719.205.2085-.055.417-.2308.517-.436.0861-.174.1068-.2997.0792-.4979-.0637-.4532-.3291-.7823-.7237-.8977-.0578-.0173-.1426-.0259-.2288-.0259m-4.6073.7597c.1465-.0002.293.0045.3869.014.5118.0551 1.027.2378 1.4405.5135.2223.1482.536.4583.6703.6617.1655.2515.2602.5083.3033.8202.019.143.0086.2516-.043.4825-.081.3446-.3326.7047-.672.9563-.1586.1155-.4877.2826-.6893.3481-.3826.1223-.6324.1447-1.525.1379-.5824-.0052-.6859-.0104-.853-.0414-.5703-.1068-1.0218-.3343-1.3492-.6807-.2654-.2791-.386-.5341-.4515-.946-.0293-.1913.0258-.5083.1378-.7754.1362-.3257.4877-.7306.8358-.9632.4032-.2688.934-.4601 1.4216-.5118.094-.0103.2404-.0155.3868-.0157m.4283 1.2374c-.1258 0-.2068.0294-.355.1241l-.0844.0534-.0534-.0327c-.2189-.1292-.2585-.1447-.3912-.143-.0948 0-.1465.0086-.193.0327-.131.0706-.2223.2498-.1947.3825.031.143.1568.2878.3532.4067.1051.0638.112.0724.1172.1361.0034.038-.0103.1465-.0293.243-.0207.0948-.0362.1947-.0362.2223.0017.0741.0707.1947.143.2533.0638.0517.0759.0534.255.0586.1638.0052.1982.0017.2637-.0293.1689-.0827.212-.2344.15-.5256-.0518-.243-.0414-.2809.0878-.355.1361-.0792.2809-.2188.324-.3136.0827-.1809.0069-.386-.1758-.4807-.0448-.0224-.1-.0328-.181-.0328"/></svg>